<svg width="256" height="256" viewBox="0 0 256 256" fill="none" xmlns="http://www.w3.org/2000/svg">
<g clip-path="url(#clip0_1_8)">
<path d="M196 0H60C26.8629 0 0 26.8629 0 60V196C0 229.137 26.8629 256 60 256H196C229.137 256 256 229.137 256 196V60C256 26.8629 229.137 0 196 0Z" fill="#0073AA"/>
<path d="M42.214 127.994C42.214 161.949 61.947 191.293 90.561 205.199L49.641 93.083C44.7357 104.068 42.2049 115.964 42.214 127.994ZM185.908 123.665C185.908 113.064 182.1 105.722 178.834 100.007C174.485 92.941 170.409 86.957 170.409 79.891C170.409 72.005 176.39 64.665 184.814 64.665C185.195 64.665 185.555 64.712 185.926 64.733C170.664 50.751 150.331 42.214 127.997 42.214C98.029 42.214 71.662 57.59 56.324 80.88C58.336 80.94 60.233 80.983 61.844 80.983C70.817 80.983 84.706 79.893 84.706 79.893C89.33 79.621 89.876 86.413 85.256 86.96C85.256 86.96 80.609 87.507 75.438 87.778L106.676 180.696L125.449 124.393L112.084 87.775C107.465 87.504 103.089 86.957 103.089 86.957C98.466 86.686 99.008 79.618 103.631 79.891C103.631 79.891 117.797 80.979 126.226 80.979C135.198 80.979 149.088 79.891 149.088 79.891C153.716 79.618 154.259 86.41 149.638 86.957C149.638 86.957 144.981 87.504 139.82 87.775L170.821 179.989L179.377 151.397C183.086 139.531 185.908 131.009 185.908 123.665Z" fill="white"/>
<path d="M129.503 135.498L103.765 210.288C111.634 212.606 119.795 213.783 127.998 213.783C137.7 213.786 147.332 212.142 156.484 208.92C156.246 208.545 156.042 208.149 155.874 207.738L129.503 135.498ZM203.269 86.838C203.659 89.7617 203.852 92.7084 203.847 95.658C203.847 104.363 202.221 114.149 197.324 126.385L171.121 202.144C196.624 187.272 213.778 159.643 213.778 127.996C213.779 113.081 209.97 99.056 203.269 86.838Z" fill="white"/>
<path d="M127.998 28C72.86 28 28 72.857 28 127.994C28 183.138 72.86 227.993 127.998 227.993C183.133 227.993 228 183.138 228 127.994C227.998 72.857 183.133 28 127.998 28ZM127.998 223.41C75.388 223.41 32.585 180.606 32.585 127.994C32.585 75.385 75.387 32.585 127.998 32.585C180.605 32.585 223.405 75.385 223.405 127.994C223.405 180.606 180.605 223.41 127.998 223.41Z" fill="white"/>
</g>
<defs>
<clipPath id="clip0_1_8">
<rect width="256" height="256" fill="white"/>
</clipPath>
</defs>
</svg>
