<svg width="100" height="100" viewBox="0 0 100 100" fill="" xmlns="http://www.w3.org/2000/svg">
<path d="M50 16.6667V82.4619M83.3333 50H16.6666M83.3238 73.8L83.2762 26.1809C83.2737 23.6567 82.2691 21.2367 80.4833 19.4527C78.6976 17.6687 76.2766 16.6667 73.7524 16.6667H26.1333C23.7306 16.6659 21.4163 17.5734 19.6545 19.2071C17.8927 20.8409 16.8135 23.0802 16.6333 25.4762L16.6047 26.2L16.6524 73.819C16.6549 76.3433 17.6594 78.7632 19.4452 80.5472C21.231 82.3312 23.6519 83.3333 26.1762 83.3333H73.7952C76.198 83.3341 78.5122 82.4266 80.274 80.7929C82.0358 79.1591 83.115 76.9198 83.2952 74.5238L83.3238 73.8Z" stroke="black" stroke-linecap="round" stroke-linejoin="round"/>
</svg>
