<svg width="53" height="59" viewBox="0 0 53 59" fill="none" xmlns="http://www.w3.org/2000/svg">
<path d="M29.0888 58.6777C38.0377 58.6777 46.2447 54.6093 51.6831 47.9086C54.8954 43.9508 51.3925 38.1681 46.4279 39.1136C37.0709 40.8956 28.4438 33.7426 28.4438 24.2519C28.4438 18.7496 31.4049 13.765 36.1062 11.0897C40.5087 8.5842 39.4013 1.9099 34.3992 0.985988C32.6476 0.66296 30.8701 0.50029 29.0888 0.5C13.0263 0.5 0 13.519 0 29.5888C0 45.6513 13.0191 58.6777 29.0888 58.6777ZM29.0888 5.95416C30.5643 5.95416 32.0078 6.09062 33.4085 6.34936C27.1862 9.89035 22.9896 16.5807 22.9896 24.2519C22.9896 37.1883 34.7662 46.8867 47.4483 44.4714C43.115 49.8106 36.5009 53.2235 29.0888 53.2235C16.0358 53.2235 5.45416 42.6419 5.45416 29.5888C5.45416 16.5358 16.0358 5.95416 29.0888 5.95416Z" fill="black"/>
</svg>
